<svg aria-hidden="true" focusable="false" data-prefix="fas" data-icon="sync-alt" role="img"
    xmlns="http://www.w3.org/2000/svg" viewBox="0 0 512 512">

    <path fill="currentColor"
        d="M452.6,44.3c-26.5,46.1-74,74.8-128.2,74.8H256c-90.7,0-164.2,73.6-164.2,164.2a167.51,167.51,0,0,0,1.3,17.5c54.6-39.1,133.3-72.3,245.1-72.3a13.7,13.7,0,0,1,0,27.4c-215,0-306.2,131.8-326.4,181.3A27.45,27.45,0,0,0,62.6,458c1.3-3.1,17.9-41,61.5-77.5,27.7,37.6,80.4,73.4,149.6,66C408,436.7,502.5,316.3,502.5,168.9c0-42.9-9.2-87.4-25.5-123.7C472,34.6,458.4,34.2,452.6,44.3Z" />

</svg>